<?xml version="1.0" encoding="UTF-8"?>
<svg width="24" height="24" viewBox="0 0 24 24" fill="none" xmlns="http://www.w3.org/2000/svg">
  <path d="M13 3C13 2.44772 12.5523 2 12 2C11.4477 2 11 2.44772 11 3V4C11 4.55228 11.4477 5 12 5C12.5523 5 13 4.55228 13 4V3Z" fill="white"/>
  <path d="M9 7C9 5.89543 9.89543 5 11 5H13C14.1046 5 15 5.89543 15 7V13C15 14.1046 14.1046 15 13 15H11C9.89543 15 9 14.1046 9 13V7Z" fill="white"/>
  <path d="M5 11C5 9.89543 5.89543 9 7 9H9V13C9 15.2091 10.7909 17 13 17C15.2091 17 17 15.2091 17 13V9H19C20.1046 9 21 9.89543 21 11V19C21 20.1046 20.1046 21 19 21H7C5.89543 21 5 20.1046 5 19V11Z" fill="white"/>
</svg> 